<?xml version="1.0" encoding="utf-8"?>
<!-- Generator: Adobe Illustrator 24.1.0, SVG Export Plug-In . SVG Version: 6.00 Build 0)  -->
<svg version="1.1" id="Layer_1" xmlns="http://www.w3.org/2000/svg" xmlns:xlink="http://www.w3.org/1999/xlink" x="0px" y="0px"
	 viewBox="0 0 1125 396" style="enable-background:new 0 0 1125 396;" xml:space="preserve">
<style type="text/css">
	.st0{fill:#22B573;}
	.st1{fill:#FFFFFF;}
	.st2{fill:#666666;}
</style>
<g>
	<path class="st0" d="M525.91,333.99c-8.31-4.81-14.84-11.35-19.61-19.64c-4.77-8.28-7.14-17.45-7.11-27.51
		c0.03-10.06,2.44-19.22,7.25-27.48c4.81-8.26,11.38-14.77,19.71-19.54c8.33-4.77,17.52-7.14,27.59-7.11
		c15.67,0.04,28.62,5.73,38.84,17.07l-13.82,13.31c-6.65-7.85-14.96-11.79-24.93-11.82c-6.48-0.02-12.39,1.44-17.71,4.38
		c-5.33,2.94-9.52,7.11-12.58,12.52c-3.06,5.41-4.6,11.65-4.62,18.7c-0.02,7.06,1.49,13.3,4.52,18.73
		c3.03,5.43,7.21,9.62,12.52,12.58c5.31,2.97,11.21,4.45,17.69,4.47c10.93,0.03,20.08-4.49,27.46-13.57l13.9,13.24
		c-5.14,6.18-11.22,10.88-18.24,14.1c-7.02,3.22-14.79,4.82-23.3,4.8C543.4,341.21,534.22,338.8,525.91,333.99z"/>
	<path class="st0" d="M631.76,334.25c-8.26-4.81-14.75-11.38-19.46-19.71c-4.72-8.33-7.07-17.48-7.04-27.44
		c0.03-9.96,2.42-19.1,7.18-27.4c4.76-8.31,11.28-14.84,19.56-19.61s17.5-7.14,27.66-7.11c10.16,0.03,19.36,2.44,27.62,7.25
		c8.26,4.81,14.75,11.38,19.47,19.71c4.72,8.33,7.07,17.48,7.04,27.44c-0.02,9.96-2.42,19.1-7.18,27.4
		c-4.76,8.31-11.28,14.84-19.56,19.61c-8.28,4.77-17.5,7.14-27.66,7.11C649.23,341.48,640.02,339.06,631.76,334.25z M677,318.48
		c5.33-2.98,9.52-7.18,12.58-12.59c3.06-5.41,4.6-11.6,4.62-18.56c0.02-6.96-1.49-13.16-4.52-18.58
		c-3.03-5.42-7.21-9.64-12.52-12.65c-5.31-3.01-11.16-4.52-17.54-4.54c-6.38-0.02-12.22,1.47-17.5,4.45
		c-5.28,2.99-9.45,7.18-12.51,12.59c-3.06,5.41-4.6,11.6-4.62,18.56c-0.02,6.96,1.49,13.16,4.52,18.58
		c3.03,5.43,7.18,9.64,12.45,12.65c5.27,3.01,11.09,4.53,17.47,4.54C665.81,322.95,671.67,321.47,677,318.48z"/>
	<path class="st0" d="M718.27,235.45l21.18,0.05l21.32,62.73l3.74,13.21l1.16,0l4.1-13.19l22.5-62.62l21.18,0.05l-38.13,103.79
		l-20.6-0.05L718.27,235.45z"/>
	<path class="st0" d="M827.38,235.72l19.59,0.05l-0.26,103.89l-19.59-0.05L827.38,235.72z"/>
	<path class="st0" d="M870.61,235.83l35.11,0.09c10.83,0.03,20.26,2.23,28.28,6.6c8.02,4.37,14.19,10.48,18.53,18.33
		c4.33,7.85,6.49,16.9,6.46,27.15c-0.03,10.25-2.23,19.29-6.6,27.12c-4.37,7.82-10.58,13.9-18.62,18.23
		c-8.04,4.33-17.48,6.48-28.31,6.46l-35.11-0.09L870.61,235.83z M904.64,321.23c11.22,0.03,19.79-2.92,25.71-8.86
		c5.91-5.93,8.89-14.07,8.91-24.43c0.03-10.35-2.91-18.51-8.79-24.47c-5.89-5.96-14.44-8.96-25.66-8.99l-14.65-0.04l-0.17,66.74
		L904.64,321.23z"/>
	<path class="st0" d="M996.91,265.61l-14.97,10.84l-9.54-14.68l29.22-20.96l14.36,0.04l-0.25,99.24l-19.01-0.05L996.91,265.61z"/>
	<path class="st0" d="M1053.04,332.38l20.53-28.57l-0.87-0.87c-2.23,0.96-4.74,1.44-7.55,1.43c-5.03-0.01-9.84-1.39-14.43-4.15
		c-4.59-2.75-8.3-6.58-11.14-11.48c-2.84-4.91-4.25-10.39-4.24-16.45c0.02-6.34,1.65-12.1,4.91-17.28
		c3.25-5.18,7.57-9.2,12.94-12.07c5.38-2.87,11.11-4.3,17.21-4.28c6.96,0.02,13.15,1.6,18.56,4.74c5.41,3.14,9.61,7.36,12.59,12.66
		c2.98,5.3,4.47,11.02,4.45,17.18c-0.02,6.16-1.22,11.92-3.6,17.31c-2.39,5.38-5.9,11.34-10.56,17.86l-24.03,34.14L1053.04,332.38z
		 M1082.39,283.95c3.35-3.09,5.02-6.98,5.04-11.66c0.01-4.68-1.65-8.54-4.98-11.61c-3.33-3.06-7.22-4.6-11.67-4.61
		c-4.55-0.01-8.49,1.51-11.84,4.55c-3.34,3.05-5.02,6.91-5.03,11.58c-0.01,4.68,1.65,8.57,4.98,11.68
		c3.33,3.11,7.27,4.67,11.81,4.68C1075.15,288.58,1079.05,287.04,1082.39,283.95z"/>
</g>
<g>
	<path class="st0" d="M198.15,261c-1.42-0.28-3.81-1.25-4.66-1.76c-0.85-0.51-2.33-0.8-4.78-0.17c-2.45,0.63-5.06,2.05-5.97,1.54
		c-0.91-0.51-2.11-2.16-3.19-1.71c-1.08,0.46-2.45,1.37-4.78,1.59c-2.33,0.23-3.13,0.46-3.87,1.31c-0.74,0.85-1.19,1.88-2.45,1.88
		c-1.25,0-1.99,0.11-3.07,0.74s-3.24,2.73-3.98,3.47c-0.74,0.74-1.71,1.48-1.31,2.5c0.4,1.02,1.37,2.45,1.37,3.81
		c0,1.37,0.28,4.21-0.74,4.32c-1.02,0.11-7.23-1.02-7.57-1.02s-2.05-0.51-2.84,0.74c-0.8,1.25-2.67,2.9-3.75,3.7
		c-1.08,0.8-1.65,1.08-2.5,0.8s-3.41-0.85-6.14,0.4c-2.73,1.25-3.64,2.22-5.29,2.5s-5.69,0.57-6.37,2.5
		c-0.68,1.93-0.63,3.24-2.1,3.24c-1.48,0-3.87,0.8-4.95,2.11c-1.08,1.31-3.07-0.45-3.98,1.42c-0.91,1.88-2.11,4.27-3.7,4.32
		s-2.11,0.28-2.67,0.63c-0.57,0.34-2.45-0.74-3.24-0.51c-0.8,0.23-1.31,0.74-1.54,1.88c-0.23,1.14-0.91,1.54-1.65,1.76
		c-0.74,0.23-3.19,1.37-4.04,1.88c-0.85,0.51-1.65,0.63-2.67,1.99c-1.02,1.37-1.59,1.71-2.5,1.59c-0.91-0.11-2.33,0.51-3.75,1.54
		c-1.42,1.02-3.36,3.07-4.66,2.39c-1.31-0.68-1.99-1.93-3.3-1.88c-1.31,0.06-5.63-0.28-5.46,2.16c0.17,2.45,0.34,2.33-1.25,3.75
		c-1.59,1.42-3.36,3.13-3.98,4.32c-0.63,1.19-0.8,3.3-1.71,3.87c-0.91,0.57-1.71,0.46-2.39-0.17c-0.68-0.63-0.91-0.8-1.59-0.17
		c-0.68,0.63-1.65,1.14-2.62,2.05c-0.97,0.91-0.57,2.05-1.88,1.42c-1.31-0.63-4.21-1.54-5.46-1.36c-1.25,0.17-3.41,0.8-4.04,0.06
		c-0.63-0.74-1.37-3.93-2.79-2.9c-1.42,1.02-6.66,0.17-7.85-0.46c-1.19-0.63-2.05-2.27-2.96-1.76c-0.91,0.51-1.25,1.19-3.07,0.23
		s-2.39-2.84-4.21-1.25c-1.82,1.59-2.96,3.19-4.27,1.99c-1.31-1.19-3.64-1.99-2.67-2.84c0.97-0.85,1.88-0.63,1.99-1.59
		c0.11-0.97,1.59-4.61,1.42-5.58c-0.17-0.97,0.51-1.02,0.74-1.48c0.23-0.45-0.74-1.42-0.74-2.1c0-0.68,1.08-0.97,0.74-2.22
		c-0.34-1.25-2.33-6.2-1.99-8.02c0.34-1.79,2.15-6.92,2.16-6.94c0,0,2.41-1.97,0.59-4.86c-1.82-2.89-2.81-4.71-2.32-5.79
		s0.83-1.9-1.16-3.06s-1.41-6.37-1.16-7.61c0.25-1.24,2.98-11.49,3.14-12.57c0.17-1.07,0.58-1.82-0.41-2.56s0.25-1.57-1.07-2.32
		s0.33-2.89-1.16-4.3c-1.49-1.41-2.98-3.89-3.56-5.13c-0.58-1.24-1.74-1.57-2.23-0.66s-0.58,2.98-2.65,3.39s-1.82,0.08-2.23-1.57
		c-0.41-1.65-3.06-6.04-4.38-7.28c-1.32-1.24-2.32-1.65-1.9-4.13s0.91-3.14,1.74-4.13c0.83-0.99,3.22-2.89,4.13-3.97
		c0.91-1.07,4.63-4.8,5.13-6.78c0.5-1.98,1.16-5.13,1.82-6.53c0.66-1.41-0.66-3.06-0.91-4.22c-0.25-1.16,0.66-2.07,1.98-3.39
		s1.74-1.57,1.9-5.95c0.17-4.38,0-7.28-1.57-8.27c-1.57-0.99-3.39-0.33-4.55-2.56c-1.16-2.23-2.98-4.55-1.65-5.21
		c1.32-0.66,2.15-2.65,2.23-4.22c0.08-1.57,1.16-4.96,3.56-4.8s3.39-0.33,4.3-1.07c0.91-0.74,2.23-0.74,2.73-0.17s0.5,0.5,2.07,0.08
		c1.57-0.41,2.73-0.66,4.38-0.41s1.82-0.74,3.56-1.24c1.74-0.5,2.15-0.5,3.64-0.58c1.49-0.08,1.65-1.32,4.46-0.74
		c2.81,0.58,3.06-0.17,3.14-0.91c0.08-0.74,1.32-1.16,3.47-1.07c2.15,0.08,2.98,0.74,4.13,1.32c1.16,0.58,4.46,1.07,5.54-0.25
		c1.07-1.32,1.24-2.89,1.32-4.46s0.08-2.73,0.74-3.97c0.66-1.24,0-3.47,0.91-4.3c0.91-0.83,8.35-3.8,9.92-2.89
		c1.57,0.91,2.07,3.31,4.3,3.56c2.23,0.25,2.15-1.32,3.97-1.82c1.82-0.5,2.73-0.17,3.97,0.25c1.24,0.41,1.24-0.91,2.56-0.91
		s6.95,1.32,8.1,1.82c1.16,0.5,1.82,1.24,3.89,0.33s3.97-3.06,4.63-4.71c0.66-1.65-0.41-1.9-1.49-1.82
		c-1.07,0.08-2.48-2.73-2.73-3.8c-0.25-1.07-1.82-1.32-1.16-3.47c0.66-2.15,1.41-6.2,0.74-8.35s-1.82-4.88-3.47-6.37
		c-1.65-1.49-1.82-3.64-1.82-4.8c0-1.16-0.58-2.73,0.5-3.89c1.07-1.16,0.41-2.23-0.08-2.98c-0.5-0.74-0.17-1.9,1.24-1.98
		c1.41-0.08,4.05-0.99,5.87-2.73c1.82-1.74,2.4-2.07,3.47-2.15c1.07-0.08,2.4-0.08,2.48-2.07c0.08-1.98,0.58-3.39,2.32-3.64
		c1.74-0.25,2.65-0.58,2.23-2.32c-0.41-1.74-0.58-3.22,0.66-4.96c1.24-1.74,1.65-2.56,3.39-3.72c0,0,2.82-1.83,2.96-4.46
		c0.14-2.62,0.23-4.07,1.58-4.3c1.36-0.23,1.72-0.09,2.26-1.27c0.54-1.18,2.53-4.7,5.16-6.69c2.62-1.99,8.59-8.5,8.91-8.96
		c0.32-0.45,3.57-2.76,5.52-3.57c1.95-0.81,5.29-2.04,6.42-1.49c1.13,0.54,4.61,5.56,4.7,6.38c0.09,0.81,1.04,3.12,2.99,1.09
		c1.94-2.04,2.35-1.99,3.21-1.99c0.86,0,1.58-0.68,3.62-2.17c2.04-1.49,3.44-1.63,3.94-1c0.5,0.63,1.54,1.85,2.04,2.04
		c0.5,0.18,0.77,0.36,1.04,1.22c0.27,0.86,1.31,1.22,3.66,1.13c2.35-0.09,3.84-1.22,5.7-0.95c1.85,0.27,2.26,0,2.35-1.13
		c0.09-1.13-0.09-2.62,1.54-2.85c1.63-0.23,2.4,0.72,2.62,1.95c0.23,1.22,1.99,1.36,3.12,2.26c1.13,0.9,1.95,2.44,1.04,3.85
		c-0.9,1.4-0.77,1.67,0.32,2.53c1.09,0.86,1.04,1.76,1.36,2.94c0.32,1.18,1.58,3.08,1.76,4.16c0.18,1.09,0.72,1.85,2.44,2.44
		c1.72,0.59,2.44,0.77,3.94,0.36c1.49-0.41,1.85-0.32,2.85-0.27c1,0.05,4.39-1.13,6.11-2.94c1.72-1.81,2.26-3.03,2.8-1.81
		c0.54,1.22,0.72,2.76,1.49,3.21c0.77,0.45,0.95,1.54,1.9,2.17c0.95,0.63,1.81,0.86,2.94,1.04c1.13,0.18,1.94,1.31,2.94,2.4
		c1,1.09,1.86,3.66,3.94,3.98c2.08,0.32,4.89,0.41,6.29-0.9c1.4-1.31,1.49-2.71,1.85-3.12c0.36-0.41,2.62-1.54,5.07-1.4
		c2.44,0.14,5.02,0.45,6.51,1.36c1.49,0.9,1.4,1.09,3.89,1.22c2.49,0.14,4.66,0.63,5.7,0.41c1.04-0.23,0.63-0.04,1.22-1.09
		c0.59-1.04,1.27-3.3,2.17-4.16c0.9-0.86,4.48-4.16,5.43-4.89c0.95-0.72,1.4-0.86,1.67-1.63c0.27-0.77,0.41-2.99,2.08-3.94
		c1.67-0.95,2.67-2.53,2.08-3.26c-0.59-0.72-4.3-2.85-5.88-4.75c-1.58-1.9-1.85-3.39-1.4-4.89c0.45-1.49,0.59-2.94,0.95-4.43
		c0.36-1.49,0.14-3.44,0-4.8c-0.14-1.36-0.59-2.53,0.18-3.75c0.77-1.22,0.59-3.03,0.41-3.8c-0.18-0.77-1-4.61,0.41-5.79
		c1.4-1.18,1.99-3.94,2.4-5.74c0.41-1.81,0.41-2.26-0.32-3.35c-0.72-1.09-1.72-5.25-1.04-6.33c0.68-1.09,1.49-1.72,1.99-2.22
		c0.5-0.5,2.49,0.81,3.71,1.31c1.22,0.5,2.13,1.31,2.62,1.99c0.5,0.68,1.94,1.13,2.9,1.36c0.95,0.23,1.27,0.9,1.76,1.31
		c0.5,0.41,0.54-0.72,1.36-0.5c0.81,0.23,1.76,0.41,2.67,0.77s1.4,0.14,1.18-0.63c-0.23-0.77,0.36-1.58,1.18-1.13
		c0.81,0.45,4.52,1.36,5.38,1.4c0.86,0.05,1.04-0.86,1.04-2.22c0-1.36,0.23-2.49,0.99-2.9c0.77-0.41,2.67-1.63,3.39-0.32
		c0.72,1.31,0.59,2.26,2.31,2.89c1.72,0.63,3.03,2.22,4.75,2.35c1.72,0.14,2.8-0.63,2.9-0.05c0.09,0.59,0.81,0.81,2.44,0.81
		c1.63,0,3.75,0.45,3.53,1.85c-0.23,1.4-1.22,1.58-1.18,2.99c0.05,1.4,0.14,5.61,0.63,6.6c0.5,1,1.22,3.17,3.62,3.66
		c2.4,0.5,3.57-0.68,4.52-1.22c0.95-0.54,1.27-0.14,2.62,0.18c1.36,0.32,0.81-1.76,2.67-1.04c1.86,0.72,2.94,0.27,3.66-0.05
		c0.72-0.32,4.48-1.18,4.7-1.76c0.23-0.59-0.09-3.08,0.86-2.49c0.95,0.59,2.94,2.26,4.03,2.99c1.09,0.72,1.81,1.9,3.03,1.31
		c1.22-0.59,1.94-1.45,2.67-1.4c0.72,0.05,0.54-0.32,1.09-0.68s1.4,0.32,1.58,1.04c0.18,0.72,0.68,3.71,3.12,3.89
		c2.44,0.18,3.89-0.27,4.75-0.63c0.86-0.36,3.17,0.77,5.7,1.85s3.66,1.94,2.99,2.94c-0.68,1-1.81,2.9-0.91,3.21
		c0.9,0.32,1.09,2.71,1.18,3.75c0.09,1.04,0.5,2.71,0,3.17c-0.5,0.45-1.09,1.49-1,2.17c0.09,0.68-0.45,1.4-0.81,1.54
		c-0.36,0.14-0.45,0.45-0.23,1.4s1.27,2.26,1.18,3.98c-0.09,1.72,0.86,5.47,3.3,5.56c2.44,0.09,3.8,0.23,4.48,1.99
		c0.68,1.76,1.58,3.84,2.62,3.39c1.04-0.45,1.9-1.72,3.26-1.76c1.36-0.05,3.35,0.54,4.52,1.22c1.18,0.68,5.52,1.72,6.42,2.26
		c0.9,0.54,1.4,1.09,1.81,0.41c0.41-0.68,0.99-1.54-0.27-2.13c-1.27-0.59-2.26-0.95-2.94-1.76c-0.68-0.81-2.04-1.72-3.57-2.17
		c-1.54-0.45-1.9-1.36-0.45-1.63c1.45-0.27,1.9-0.86,2.31-1.36c0.41-0.5,0.86-0.14,3.17,0.63c2.31,0.77,4.25,1.63,5.25,1.76
		c1,0.14,2.58-0.54,3.26,0c0.68,0.54,1.67,0.77,2.99,0.77s3.75-0.32,3.98-1.27c0.23-0.95-0.77-1.85-0.14-3.44
		c0.63-1.58,1.04-2.08,0.63-2.85c-0.41-0.77-0.81-3.44-0.81-4.57c0-1.13-0.45-3.75-0.59-4.43c-0.14-0.68,0.41-1,1.09-1.49
		c0.68-0.5,1.36-1.04,0.72-2.67c-0.63-1.63-1.09-3.21-0.5-3.85c0.59-0.63,0.5-1.36,0.09-1.95c-0.41-0.59,0.27-1.72,0.59-2.13
		c0.32-0.41,5.83-2.62,7.28-2.94c1.45-0.32,2.62-0.5,2.94,0.32c0.32,0.81,0.72,0.86,1.58,0.77c0.86-0.09,1.54,0.05,2.08,0.77
		c0.54,0.72,1.54,0.5,1.9,0c0.36-0.5,0.86-1.04,1.27,0.72c0.41,1.76,1.04,5.52,1.58,7.33c0.54,1.81,0.63,1.99,1.18,2.76
		c0.54,0.77,0.68,2.9,0.77,3.71c0.09,0.81,0.32,1.4,1.58,1c1.27-0.41,1.81-0.18,1.18,0.95c-0.63,1.13-0.18,1.76,1.18,2.13
		c1.36,0.36,1.31-0.27,1.94,0.14c0.63,0.41,1-0.36,1.54,0.36c0.54,0.72,0.45,1.22,1.09,1.09s0.63,1.18,0.72,1.9
		c0.09,0.72,0.36,12.08,0.36,12.3c0,0.23,0.23,2.17,1.4,2.71c1.18,0.54,1.36,1.81,1.81,2.8c0.45,1,2.08,3.94,2.17,5.74
		c0.09,1.81-0.18,11.58,0.05,13.84s0.45,3.57,1.67,7.64c1.22,4.07,1.58,5.43,0.81,8.68c-0.77,3.26-0.04,5.11,0.45,6.56
		c0.5,1.45,0.77,3.8,0.36,6.6c-0.41,2.8,1.85,20.13,1.85,20.13s1.44,6.44,1.44,7.43c0,0.99,0.58,2.98,0.33,3.72
		s-1.16,1.24-1.07,2.73c0.08,1.49-0.41,4.22,0.25,5.54s-0.25,2.73-0.17,4.05c0.08,1.32,0.17,4.38-0.74,5.46
		c-0.91,1.07,0.33,13.39,0.33,14.39c0,0,0.97,0.73,0.77,1.34c-0.2,0.61-1.22,1.73-1.22,2.68c0,0.95,0.34,2.34-0.07,3.19
		s-1.32,0.58-1.42,1.83c-0.1,1.26,0.07,2.71,0.17,3.46c0.1,0.75,0.34,0.68,0.95,0.98c0.61,0.3,0.75,0.68,0.51,0.95
		c-0.24,0.27-0.48-0.34-1.02,0.44c-0.54,0.78-1.19,3.46-1.59,5.53c-0.41,2.07-2.07,15-2.14,15.23c-0.07,0.24-0.61,1.46,0.03,1.63
		c0.64,0.17,1.29,0.17,1.32,0.58c0.03,0.41,0.37,1.02,0,1.05c-0.37,0.03-0.71,0.24-0.71,0.81c0,0.58-0.24,1.12-0.54,1.12
		s-0.71,1.22-0.85,2.48c-0.14,1.26-1.65,6.52-2.15,8.73s-0.33,5.35,0,6.83s0.28,5.62-0.11,7.88c-0.39,2.26-0.83,6.56-1.1,8.21
		c-0.28,1.65-0.72,1.93-2.2,4.46s-3.25,11.69-3.2,16.65s0.77,7.39,1.32,7.94s0.44,2.37,0.33,3.09c-0.11,0.72,1.82,1.43,0.55,1.82
		c-1.27,0.39-2.48,0.99-3.14,3.36c-0.66,2.37,1.65,2.37-0.61,3.14c-2.26,0.77-1.71,0.66-2.09,1.65c-0.39,0.99-0.61,1.54-1.27,1.54
		s-0.44,0.28-0.55,1.21c-0.11,0.94-0.88,0.66-1.16,0.39s-0.72,0.11-1.16,0.55s-1.32,0.88-2.09,2.2c-0.77,1.32-1.6,2.15-1.71,2.81
		c-0.11,0.66-0.83,0.72-1.49,0.5c-0.66-0.22-1.16-0.22-0.99-1.21c0.17-0.99,0-2.21-0.99-1.6c-0.99,0.61-0.66-0.44-1.49,0.22
		c-0.83,0.66-0.77-0.22-1.16,0.5c-0.39,0.72-0.66-0.55-0.99,0.05s-0.33,1.87-0.88,1.27s-0.55-0.55-1.43,0.28s-0.72,1.16-0.61,1.87
		c0.11,0.72-0.55,0.66-1.21-0.22c-0.66-0.88-1.43-1.38-1.49-0.61c-0.05,0.77,1.16,1.05,0.5,1.43c-0.66,0.39-1.65,1.21-1.65,1.21
		s0.39,1.21-0.33,1.49c-0.72,0.28-0.83-0.83-1.65-0.44c-0.83,0.39-2.92,2.48-3.91,2.65c-0.99,0.17-2.04,0.11-2.54-0.33
		s-0.77-0.22-1.65,0.33c-0.88,0.55-6.5,5.02-7,8.6c-0.5,3.58-1.1,4.96-0.33,5.9c0.77,0.94-1.1,1.21-1.32,0.44s0.38-1.1-0.55-1.43
		s-2.59-1.05-2.87-0.5c-0.28,0.55-1.32,0.99-1.71,0.5c-0.39-0.5-0.44-0.44-0.39-1.16c0.06-0.72-0.44-1.49-1.05-0.22
		c-0.61,1.27-1.98-0.5-3.03-1.32c-1.05-0.83-1.05-0.33-1.49,0.11c-0.44,0.44-0.83,0.05-1.82-0.33c-0.99-0.39-1.54,0.66-1.76,1.05
		c-0.22,0.39-3.58-1.65-4.08-2.48s-2.32-2.2-2.98-2.54s-7.55-3.31-9.15-3.47c-1.6-0.17-2.65,0.72-4.24,0.44
		c-1.6-0.28-4.63-0.94-5.24-1.93c-0.61-0.99-3.36-4.96-4.08-5.73c-0.72-0.77-0.66-2.09-0.88-3.58s-0.72-2.92-2.92-1.82
		c-2.2,1.1-2.98,2.2-2.92,3.47c0.06,1.27,0.28,1.93-0.22,3.03s-0.66,1.38,0.33,2.09c0.99,0.72,1.82,0.83,2.09,2.43
		c0.28,1.6,0.94,2.59,1.76,4.68c0.83,2.09,2.26,4.08,1.49,4.46c-0.77,0.39-1.05-0.33-1.6,0.99c-0.55,1.32-1.49,0.66-2.37,0.83
		c-0.88,0.17-2.1,1.65-3.03,1.87s-2.48,0.33-3.42,0.33s-1.71,0.22-2.32,1.1s-4.52,6.39-5.02,8.05c-0.5,1.65-0.99,1.65-1.93,1.93
		c-0.94,0.28-1.49,1.05-2.37,0.94c-0.88-0.11-1.43,0.06-1.65,0.94c-0.22,0.88-2.48,5.01-4.08,5.9c-1.6,0.88-2.26,0.83-2.48-0.44
		c-0.22-1.27-1.76-2.54-3.25-4.52c-1.49-1.98-2.09-3.03-3.31-1.93c-1.21,1.1-1.87-0.66-2.37-1.27s-2.15-1.98-4.69-2.48
		c-2.54-0.5-6.01-1.27-6.34-2.2c-0.33-0.94-1.98-6.12-1.76-7.22s0.66-1.93,0.28-2.54c-0.39-0.61-1.1-2.98-2.48-3.03
		s-6.61-1.82-7.17-2.09c-0.55-0.28-1.43-1.16-1.54-2.42c-0.11-1.27-0.77-2.37-1.05-2.65s-4.46-5.46-5.79-6.23
		c-1.32-0.77-2.59-2.09-3.42-1.21c-0.83,0.88-1.65,0.77-2.42,0.39s-5.13-2.15-5.4-2.32c-0.28-0.17-1.32-1.1-0.94-2.59
		c0.39-1.49,1.16-2.15,1.54-2.43s0.5-1.1-0.22-2.15c-0.72-1.05-1.76-3.58-0.72-4.08c1.05-0.5,0.72-1.49,0.28-2.2
		c-0.44-0.72-1.65-3.47-1.27-4.02c0.39-0.55,1.05-0.39,1.16-1.21c0.11-0.83,0.17-1.32,0.94-1.54c0.77-0.22,0.16-2.76-0.22-3.36
		c-0.39-0.61-1.6-0.39-2.98-0.33c-1.38,0.05-4.02,1.38-4.8,1.6s-4.46-2.26-4.41-4.13c0.05-1.87,0.77-2.37-0.17-3.64
		c-0.94-1.27-1.87-2.42-1.27-3.42c0.61-0.99,1.6-1.76-0.88-2.7s-7.77-4.57-7.66-5.35c0.11-0.77,0.11-0.94-0.61-1.38
		c-0.72-0.44-1.87-2.65-2.32-3.42c-0.44-0.77-1.27-1.16-1.49-0.44c-0.22,0.72-1.65,0.17-2.04-0.22s-6.45-5.29-9.65-5.9
		c-3.2-0.61-5.46,0.05-6.83-0.5c-1.38-0.55-1.76-1.87-3.75-2.87c-1.98-0.99-3.31-1.49-4.85-1.21
		C206.41,262.88,198.15,261,198.15,261z"/>
	<path class="st1" d="M207.71,154.49c0,0,0.89-1.54,1.94-0.97c1.05,0.57,1.7-0.16,2.27-0.89c0.57-0.73,4.53-3.16,5.18-3.72
		c0.65-0.57,1.7-0.65,4.78-0.65s7.53-0.49,7.69,1.94c0.16,2.43-0.73,5.42,1.3,5.59c2.02,0.16,3.89,0.4,4.78,0.65s1.38,1.3,1.78,2.35
		c0.41,1.05,2.19,0.73,1.54,2.27c-0.65,1.54-1.21,3.16-0.81,4.7c0.4,1.54,1.78,4.94,0.4,6.96c-1.38,2.02-3.16,7.21-5.99,8.99
		c-2.83,1.78-3.4,1.21-3.97,0.4c-0.57-0.81-1.54-0.97-2.1-0.4c-0.57,0.57-0.89-0.97-2.27-0.81c-1.38,0.16-2.83-0.89-2.75-1.21
		c0.08-0.32-1.54-1.13-1.94-1.7c-0.4-0.57,0.24-2.27-0.16-3c-0.4-0.73-1.21-1.05-1.05-1.7c0.16-0.65-0.73-0.97-0.97-0.97
		s-2.83-3-3-4.05c-0.16-1.05-1.86-6.8-1.7-6.48c0.16,0.32-0.57,1.78-1.46,2.02c-0.89,0.24-1.21-0.4-1.05-1.38
		c0.16-0.97,0.16-1.94-0.4-2.67C209.17,159.02,207.47,157.89,207.71,154.49z"/>
</g>
<g>
	<path class="st2" d="M521.38,154.36c-3.94,3.73-6.19,5.6-12.93,10.82c-2.4-11.04-5.56-20.21-10.77-30.14
		c10.12-6.71,17.24-12.86,25.12-22.01c6.75-7.84,10.7-14,15.02-23.71l-19.26-0.05c-7.11-0.02-10.47,0.16-15.53,0.71l0.07-27.49
		c3.93,0.57,7.67,0.77,13.84,0.78l4.49,0.01l0.03-13.09c0.01-5.42-0.35-9.54-0.9-14.22l29.36,0.07c-0.57,4.3-0.96,9.16-0.97,14.4
		l-0.03,12.91c5.24,0.01,7.86-0.17,9.54-0.54l12.3,15.93c-1.32,2.61-1.5,3.18-4.52,10.27c-3.95,9.9-8.65,19.06-14.85,28.77
		c3.17,3.94,9.51,9.56,14.74,12.94c-0.18-3.74-0.36-4.3-0.54-7.3c6.17,0.58,10.47,0.77,19.64,0.8l67.71,0.17
		c9.35,0.02,15.15-0.15,20.01-0.7c-0.58,6.54-0.78,11.22-0.8,20.76l-0.12,48.07c-0.02,9.35,0.15,14.78,0.89,19.83l-28.62-0.07
		l0.02-6.36l-51.43-0.13l-0.02,6.17l-27.68-0.07c0.76-5.42,0.96-10.47,0.99-19.82l0.12-47.88c0.01-2.43,0.01-3.37,0.02-7.48
		c-4.13,6.91-6.39,11.95-9.03,21.3c-4.29-4.31-5.6-5.81-8.58-9.37l-0.11,43.2c-0.02,9.35,0.15,15.15,0.88,20.58l-29.18-0.07
		c0.58-6.36,0.97-13.84,0.99-21.13L521.38,154.36z M564.13,40.19c6.55,0.58,13.28,0.97,22.25,0.99l67.89,0.17
		c10.66,0.03,15.9-0.15,21.51-0.88l-0.07,25.81c-5.61-0.76-9.35-0.96-18.33-0.98l-75-0.19c-8.98-0.02-12.72,0.15-18.33,0.89
		L564.13,40.19z M572.62,83.42c0.01-5.8-0.17-8.6-0.71-13.09c5.61,0.39,10.47,0.59,18.89,0.61l58.54,0.15
		c7.67,0.02,12.16-0.16,17.96-0.52c-0.57,4.3-0.77,6.92-0.78,12.9l-0.06,22.07c-0.02,5.98,0.16,8.79,0.71,13.09
		c-5.24-0.39-9.91-0.59-18.52-0.61l-58.17-0.15c-8.23-0.02-13.47,0.15-18.7,0.51c0.57-4.3,0.77-7.29,0.78-12.9L572.62,83.42z
		 M593.32,183.34l13.28,0.03l0.02-8.79l-13.28-0.03L593.32,183.34z M593.39,154.73l13.28,0.03l0.02-8.79l-13.28-0.03L593.39,154.73z
		 M598.96,98.82l39.65,0.1l0.02-7.85l-39.65-0.1L598.96,98.82z M631.29,183.44l13.28,0.03l0.02-8.79l-13.28-0.03L631.29,183.44z
		 M631.36,154.82l13.28,0.03l0.02-8.79l-13.28-0.03L631.36,154.82z"/>
	<path class="st2" d="M738.51,163.14l-15.9-0.04c-5.8-0.01-7.86-0.02-14.4,0.34c0.58-5.98,0.78-11.6,0.8-21.51l0.19-74.25
		c0.02-6.92-0.16-12.72-0.89-18.89c5.61,0.58,9.35,0.77,17.21,0.79l24.13,0.06c2.82-5.23,4.32-9.15,5.65-14.39l31.6,1.76
		c-1.51,3.74-3.2,7.1-6.58,12.7l37.97,0.1c8.04,0.02,12.16-0.16,17.21-0.7c-0.76,5.05-0.96,9.91-0.98,16.83l-0.08,29.74
		c-0.02,6.92,0.16,12.16,0.89,17.21c-5.61-0.39-10.29-0.59-17.02-0.6l-81.55-0.21l-0.01,5.61l108.85,0.28
		c8.42,0.02,12.34-0.16,17.4-0.7l-0.05,21.13c-5.05-0.57-10.66-0.77-17.95-0.79l-108.29-0.27l-0.01,5.61l109.04,0.28
		c6.17,0.02,9.91-0.16,13.47-0.53c-0.38,2.06-0.57,4.3-0.77,8.04c-0.79,14.77-3.07,32.16-4.78,39.64
		c-2.46,9.72-6.96,15.69-14.08,18.86c-4.49,2.05-10.85,2.96-19.46,2.94c-1.12,0-2.24-0.01-4.11-0.01
		c-1.28-13.28-2.39-18.34-5.92-26.57c4.3,0.57,7.29,0.95,9.54,0.96c4.49,0.01,6.55-1.11,7.49-4.47c0.95-3.93,1.9-10.66,2.29-18.7
		l-63.4-0.16l-0.04,15.15l16.27,0.04l0.01-3.18c0.01-2.99-0.17-5.05-0.54-8.04l28.62,0.07c-0.57,2.8-0.77,7.29-0.78,11.78
		l-0.02,9.54c-0.02,7.86,0.16,10.29,0.71,15.53c-6.36-0.2-6.36-0.2-15.34-0.41c-3.18-0.19-3.18-0.19-9.73-0.21l-62.84-0.16
		l-0.02,5.98l-28.24-0.07c0.76-5.23,0.96-9.54,0.98-16.27l0.04-14.4c0.01-4.68-0.17-8.23-0.72-11.41l28.62,0.07
		c-0.38,2.24-0.57,4.67-0.58,7.85l-0.01,3.18l16.08,0.04L738.51,163.14z M736.99,95.99l69.58,0.18l0.02-6.36l-69.58-0.18
		L736.99,95.99z M806.62,75.22l0.02-6.36l-69.58-0.18l-0.02,6.36L806.62,75.22z"/>
</g>
</svg>
