<?xml version="1.0" encoding="utf-8"?>
<!-- Generator: Adobe Illustrator 24.1.0, SVG Export Plug-In . SVG Version: 6.00 Build 0)  -->
<svg version="1.1" id="Layer_1" xmlns="http://www.w3.org/2000/svg" xmlns:xlink="http://www.w3.org/1999/xlink" x="0px" y="0px"
	 viewBox="0 0 200 80" style="enable-background:new 0 0 200 80;" xml:space="preserve">
<style type="text/css">
	.st0{fill:#2E333D;}
	.st1{fill:#EF382F;}
</style>
<g>
	<g>
		<path class="st0" d="M15.6,12.92c-1.06,0-1.86,0.4-2.42,1.18c-0.56,0.79-0.84,1.87-0.84,3.24c0,1.39,0.26,2.46,0.77,3.22
			c0.52,0.76,1.35,1.14,2.49,1.14c0.52,0,1.05-0.06,1.59-0.18c0.53-0.12,1.11-0.29,1.73-0.51v2.31c-0.57,0.23-1.14,0.4-1.69,0.51
			C16.66,23.94,16.04,24,15.35,24c-1.35,0-2.45-0.28-3.32-0.83c-0.86-0.55-1.5-1.33-1.91-2.33c-0.41-1-0.62-2.17-0.62-3.51
			c0-1.31,0.24-2.47,0.71-3.48c0.47-1.01,1.16-1.8,2.07-2.37c0.9-0.57,2.01-0.86,3.32-0.86c0.64,0,1.29,0.08,1.94,0.25
			c0.65,0.16,1.27,0.39,1.87,0.66l-0.89,2.24c-0.49-0.23-0.97-0.43-1.47-0.6C16.56,13.01,16.08,12.92,15.6,12.92z"/>
		<path class="st0" d="M45.33,17.29c0,1.35-0.22,2.52-0.67,3.52c-0.44,1-1.12,1.78-2.04,2.34S40.55,24,39.14,24
			c-1.41,0-2.57-0.28-3.49-0.84c-0.92-0.56-1.6-1.34-2.04-2.35c-0.44-1.01-0.67-2.19-0.67-3.53c0-1.35,0.22-2.52,0.67-3.52
			c0.44-1,1.12-1.77,2.04-2.32c0.92-0.55,2.09-0.83,3.51-0.83c1.41,0,2.57,0.28,3.48,0.83c0.91,0.55,1.59,1.33,2.03,2.33
			C45.11,14.77,45.33,15.95,45.33,17.29z M35.84,17.29c0,1.36,0.26,2.43,0.78,3.22c0.52,0.78,1.36,1.17,2.51,1.17
			c1.18,0,2.02-0.39,2.53-1.17c0.51-0.78,0.76-1.86,0.76-3.22c0-1.36-0.25-2.43-0.76-3.21s-1.35-1.18-2.51-1.18
			c-1.17,0-2.01,0.39-2.53,1.18C36.1,14.86,35.84,15.93,35.84,17.29z"/>
		<path class="st0" d="M70.29,17.18c0,2.2-0.63,3.85-1.88,4.96c-1.25,1.11-2.99,1.67-5.23,1.67H59.5V10.81h4.08
			c1.36,0,2.54,0.24,3.54,0.73c1,0.49,1.78,1.2,2.33,2.15C70.01,14.63,70.29,15.8,70.29,17.18z M67.43,17.26
			c0-1.43-0.32-2.49-0.95-3.17c-0.63-0.68-1.55-1.02-2.75-1.02h-1.48v8.47h1.18C66.1,21.54,67.43,20.11,67.43,17.26z"/>
		<path class="st0" d="M92.31,23.82h-7.49V10.81h7.49v2.26h-4.74v2.86h4.41v2.26h-4.41v3.35h4.74V23.82z"/>
	</g>
	<g>
		<path class="st1" d="M13.55,67.82H10.8V54.66h7.54v2.29h-4.79v3.39h4.46v2.29h-4.46V67.82z"/>
		<path class="st1" d="M40.58,54.66v8.51c0,0.91-0.2,1.73-0.6,2.46c-0.4,0.73-1,1.31-1.82,1.73C37.35,67.79,36.34,68,35.12,68
			c-1.74,0-3.07-0.45-3.98-1.34c-0.91-0.89-1.36-2.07-1.36-3.53v-8.48h2.78v8.05c0,1.09,0.22,1.86,0.66,2.29
			c0.44,0.44,1.1,0.65,1.97,0.65c0.91,0,1.57-0.24,1.98-0.72c0.41-0.48,0.62-1.23,0.62-2.25v-8.03H40.58z"/>
		<path class="st1" d="M62.97,67.82H59.8l-3.45-5.55l-1.18,0.85v4.7h-2.78V54.66h2.78v6.03c0.18-0.26,0.37-0.52,0.55-0.77
			c0.18-0.26,0.37-0.52,0.55-0.77l3.56-4.48h3.1l-4.59,5.82L62.97,67.82z"/>
		<path class="st1" d="M84.29,54.66v8.51c0,0.91-0.2,1.73-0.6,2.46c-0.4,0.73-1,1.31-1.82,1.73C81.06,67.79,80.05,68,78.83,68
			c-1.74,0-3.07-0.45-3.98-1.34c-0.91-0.89-1.36-2.07-1.36-3.53v-8.48h2.78v8.05c0,1.09,0.22,1.86,0.66,2.29
			c0.44,0.44,1.1,0.65,1.97,0.65c0.91,0,1.57-0.24,1.98-0.72c0.41-0.48,0.62-1.23,0.62-2.25v-8.03H84.29z"/>
		<path class="st1" d="M103.86,64.17c0,1.17-0.42,2.1-1.26,2.79c-0.84,0.69-2.04,1.04-3.58,1.04c-1.39,0-2.63-0.26-3.72-0.79v-2.6
			c0.63,0.27,1.27,0.52,1.94,0.75c0.67,0.23,1.34,0.34,2,0.34c0.69,0,1.18-0.13,1.47-0.4c0.29-0.26,0.43-0.6,0.43-1
			c0-0.33-0.11-0.61-0.34-0.85c-0.23-0.23-0.53-0.45-0.91-0.65c-0.38-0.2-0.82-0.42-1.31-0.65c-0.31-0.15-0.64-0.32-0.99-0.53
			c-0.36-0.2-0.7-0.45-1.02-0.76c-0.33-0.3-0.59-0.67-0.8-1.1c-0.21-0.43-0.31-0.95-0.31-1.55c0-1.18,0.4-2.1,1.2-2.75
			c0.8-0.66,1.89-0.99,3.26-0.99c0.69,0,1.34,0.08,1.95,0.24c0.61,0.16,1.27,0.39,1.95,0.68l-0.9,2.17
			c-0.6-0.25-1.14-0.44-1.62-0.57c-0.48-0.14-0.97-0.2-1.47-0.2c-0.53,0-0.93,0.12-1.22,0.37c-0.28,0.25-0.42,0.56-0.42,0.96
			c0,0.47,0.21,0.84,0.63,1.11c0.42,0.27,1.04,0.6,1.86,0.99c0.68,0.32,1.25,0.65,1.72,1c0.47,0.34,0.84,0.75,1.1,1.22
			C103.73,62.9,103.86,63.48,103.86,64.17z"/>
		<path class="st1" d="M125.99,67.82h-2.78v-5.68h-5.21v5.68h-2.78V54.66h2.78v5.16h5.21v-5.16h2.78V67.82z"/>
		<path class="st1" d="M143.18,67.82h-5.99v-1.58l1.6-0.74v-8.51l-1.6-0.74v-1.59h5.99v1.59l-1.6,0.74v8.51l1.6,0.74V67.82z"/>
		<path class="st1" d="M159.95,67.82l-3.17-10.32h-0.07c0.01,0.25,0.03,0.61,0.06,1.11c0.02,0.49,0.05,1.02,0.07,1.58
			c0.02,0.57,0.04,1.07,0.04,1.51v6.12h-2.49V54.66h3.8l3.11,10.06h0.06l3.3-10.06h3.8v13.16h-2.6v-6.23c0-0.42,0.01-0.9,0.03-1.44
			c0.02-0.54,0.04-1.05,0.06-1.54c0.02-0.49,0.03-0.85,0.05-1.1h-0.07l-3.39,10.3H159.95z"/>
		<path class="st1" d="M187.66,67.82l-0.96-3.13h-4.79l-0.96,3.13h-3l4.64-13.21h3.41l4.66,13.21H187.66z M186.04,62.34l-0.96-3.06
			c-0.06-0.21-0.14-0.47-0.24-0.79c-0.1-0.32-0.2-0.64-0.29-0.98c-0.1-0.33-0.18-0.62-0.24-0.87c-0.06,0.25-0.14,0.55-0.25,0.91
			c-0.1,0.36-0.2,0.71-0.29,1.03c-0.09,0.33-0.16,0.56-0.21,0.69l-0.94,3.06H186.04z"/>
	</g>
	<g>
		<path class="st0" d="M135.91,23.39h-2.71V10.39h7.45v2.26h-4.74V16h4.41v2.26h-4.41V23.39z"/>
		<path class="st0" d="M166.84,16.87c0,1.35-0.22,2.52-0.67,3.52s-1.12,1.78-2.04,2.34s-2.08,0.84-3.49,0.84
			c-1.41,0-2.57-0.28-3.49-0.84c-0.92-0.56-1.6-1.34-2.04-2.35c-0.44-1.01-0.67-2.19-0.67-3.53c0-1.35,0.22-2.52,0.67-3.52
			c0.44-1,1.12-1.77,2.04-2.32c0.92-0.55,2.09-0.83,3.51-0.83c1.41,0,2.57,0.28,3.48,0.83c0.91,0.55,1.59,1.33,2.03,2.33
			S166.84,15.53,166.84,16.87z M157.35,16.87c0,1.36,0.26,2.43,0.78,3.22c0.52,0.78,1.36,1.17,2.51,1.17c1.18,0,2.02-0.39,2.53-1.17
			s0.76-1.86,0.76-3.22c0-1.36-0.25-2.43-0.76-3.21s-1.35-1.18-2.51-1.18s-2.01,0.39-2.53,1.18
			C157.61,14.44,157.35,15.51,157.35,16.87z"/>
		<path class="st0" d="M184.07,10.39c1.77,0,3.08,0.32,3.93,0.97c0.84,0.64,1.27,1.62,1.27,2.93c0,0.6-0.11,1.11-0.34,1.56
			c-0.22,0.44-0.52,0.82-0.89,1.13c-0.37,0.31-0.77,0.56-1.19,0.76l3.83,5.67h-3.06l-3.1-4.99h-1.48v4.99h-2.75V10.39H184.07z
			 M183.87,12.65h-0.84v3.52h0.89c0.91,0,1.56-0.15,1.96-0.46c0.39-0.3,0.59-0.75,0.59-1.35c0-0.62-0.21-1.06-0.64-1.32
			S184.76,12.65,183.87,12.65z"/>
	</g>
</g>
</svg>
