<?xml version="1.0" encoding="utf-8"?>
<!-- Generator: Adobe Illustrator 24.1.0, SVG Export Plug-In . SVG Version: 6.00 Build 0)  -->
<svg version="1.1" id="Layer_1" xmlns="http://www.w3.org/2000/svg" xmlns:xlink="http://www.w3.org/1999/xlink" x="0px" y="0px"
	 viewBox="0 0 200 80" style="enable-background:new 0 0 200 80;" xml:space="preserve">
<style type="text/css">
	.st0{fill-rule:evenodd;clip-rule:evenodd;fill:#231916;}
	.st1{fill:#231916;}
</style>
<g>
	<g>
		<path class="st0" d="M10.73,53.04c3.05-0.03,5.26-1.34,6.37-3.62c0.7,1.48,1.51,2.67,3.38,4.74c-2.13,2.78-6.15,3.75-6.15,3.75
			C13.03,57,10.73,53.04,10.73,53.04z"/>
		<path class="st1" d="M14.29,57.95c-1.31-0.93-3.6-4.88-3.61-4.89l0,0l0.05-0.03l0,0.05l0-0.05l-0.05,0.03
			c-0.01-0.02-0.01-0.04,0-0.05l0,0c0.01-0.02,0.03-0.03,0.05-0.03l0,0c3.04-0.03,5.22-1.33,6.32-3.59l0,0
			c0.01-0.02,0.03-0.03,0.05-0.03l0,0c0.02,0,0.04,0.01,0.05,0.03l0,0c0.69,1.47,1.5,2.66,3.37,4.73l0,0c0.02,0.02,0.02,0.05,0,0.07
			l0,0c-2.15,2.8-6.18,3.77-6.19,3.77l0,0c0,0-0.01,0-0.01,0l0,0C14.31,57.96,14.3,57.96,14.29,57.95L14.29,57.95z M12.08,55.1
			c0.73,1.09,1.62,2.29,2.25,2.75l0,0c0.16-0.04,1.09-0.29,2.24-0.82l0,0c1.26-0.58,2.77-1.51,3.83-2.87l0,0
			c-1.81-2.01-2.63-3.19-3.31-4.62l0,0c-1.12,2.22-3.3,3.5-6.27,3.55l0,0C10.97,53.35,11.47,54.18,12.08,55.1L12.08,55.1z"/>
	</g>
	<g>
		<path class="st0" d="M27.94,24.53c0.8,1.44,1.94,3.36,4.03,4.85c-3.91,0.45-9.7,4.41-9.7,11.38c0,6.3,5.17,11.57,11.56,11.57
			c6.56,0,11.56-5.42,11.56-11.61c-0.02-6.08-4.55-10.17-9.01-11.2c-1-0.23-1.62-0.48-2.62-1.03c-1.88-1.04-5.73-4.17-5.47-10.01
			c2.7,0,5.35,0,8.05,0c0.02,0,0,0.05,0,0.05s-0.04,0.01-0.07,0.03c-1.47,0.98-1.3,4.8,1.2,5.25c5.64,1.03,13.69,6.93,13.69,17.01
			c0,9.01-7.35,17.31-17.35,17.31c-9.55,0-17.3-7.76-17.3-17.36C16.51,32.67,22.01,26.54,27.94,24.53z"/>
		<path class="st1" d="M21.54,53.08c-3.14-3.15-5.08-7.5-5.08-12.32l0,0c0-8.12,5.52-14.27,11.47-16.29l0,0
			c0.02-0.01,0.05,0,0.06,0.03l0,0c0.8,1.44,1.94,3.35,4.01,4.84l0,0c0.02,0.01,0.03,0.04,0.02,0.06l0,0
			c-0.01,0.02-0.02,0.04-0.05,0.04l0,0c-3.89,0.44-9.66,4.39-9.65,11.32l0,0c0,3.13,1.29,6.01,3.37,8.11l0,0
			c2.08,2.1,4.96,3.41,8.14,3.41l0,0c3.27,0,6.14-1.35,8.2-3.47l0,0c2.06-2.12,3.31-5.01,3.31-8.09l0,0
			c-0.02-6.05-4.53-10.12-8.97-11.15l0,0c-1-0.23-1.63-0.48-2.63-1.04l0,0c-1.83-1.01-5.51-3.99-5.51-9.49l0,0
			c0-0.19,0-0.38,0.01-0.57l0,0c0-0.03,0.03-0.05,0.05-0.05l0,0c2.7,0,5.35,0,8.05,0l0,0c0.02,0,0.05,0.01,0.05,0.03l0,0
			c0.01,0.02,0.01,0.03,0.01,0.03l0,0c0,0.03-0.01,0.05-0.01,0.06l0,0c-0.01,0.01-0.02,0.03-0.03,0.03l0,0c0,0-0.03,0.01-0.07,0.03
			l0,0c-0.58,0.39-0.9,1.26-0.9,2.18l0,0c0,1.32,0.65,2.72,2.08,2.98l0,0c5.66,1.04,13.73,6.95,13.73,17.06l0,0
			c0,9.04-7.37,17.37-17.4,17.37l0,0C29.01,58.18,24.68,56.23,21.54,53.08L21.54,53.08z M16.56,40.76c0,4.79,1.93,9.11,5.05,12.24
			l0,0c3.12,3.13,7.43,5.06,12.19,5.06l0,0c4.99,0,9.31-2.07,12.39-5.26l0,0c3.08-3.19,4.91-7.51,4.91-12l0,0
			c0-10.05-8.03-15.93-13.65-16.95l0,0c-1.5-0.28-2.17-1.74-2.17-3.08l0,0c0-0.93,0.32-1.81,0.92-2.25l0,0c-2.64,0-5.23,0-7.86,0
			l0,0c-0.01,0.17-0.01,0.34-0.01,0.51l0,0c0,5.45,3.64,8.4,5.45,9.4l0,0c1,0.55,1.61,0.8,2.6,1.03l0,0
			c4.48,1.04,9.03,5.15,9.05,11.26l0,0c0,3.11-1.26,6.03-3.34,8.17l0,0c-2.08,2.14-4.99,3.5-8.28,3.5l0,0
			c-6.42,0-11.61-5.3-11.61-11.63l0,0c0-6.92,5.68-10.89,9.61-11.41l0,0c-2-1.48-3.12-3.34-3.91-4.75l0,0
			C22.02,26.61,16.56,32.71,16.56,40.76L16.56,40.76z"/>
	</g>
	<g>
		<path class="st0" d="M56.95,53.04c-3.05-0.03-5.26-1.34-6.37-3.62c-0.7,1.48-1.51,2.67-3.38,4.74c2.13,2.78,6.15,3.75,6.15,3.75
			C54.65,57,56.95,53.04,56.95,53.04z"/>
		<path class="st1" d="M53.34,57.96c0,0-4.04-0.97-6.18-3.77l0,0c-0.02-0.02-0.01-0.05,0-0.07l0,0c1.87-2.07,2.68-3.26,3.37-4.73
			l0,0c0.01-0.02,0.03-0.03,0.05-0.03l0,0c0.02,0,0.04,0.01,0.05,0.03l0,0c1.1,2.26,3.28,3.56,6.32,3.59l0,0l0,0.05l0-0.05
			c0.02,0,0.04,0.01,0.05,0.03l0,0c0.01,0.02,0.01,0.04,0,0.05l0,0c0,0-2.29,3.96-3.61,4.89l0,0c-0.01,0.01-0.02,0.01-0.03,0.01l0,0
			C53.35,57.96,53.34,57.96,53.34,57.96L53.34,57.96z M51.1,57.03c1.16,0.54,2.09,0.78,2.24,0.82l0,0c0.63-0.45,1.52-1.66,2.25-2.75
			l0,0c0.61-0.92,1.11-1.76,1.26-2.01l0,0c-2.97-0.05-5.15-1.33-6.27-3.55l0,0c-0.68,1.43-1.5,2.61-3.31,4.62l0,0
			C48.32,55.52,49.84,56.45,51.1,57.03L51.1,57.03z"/>
	</g>
</g>
<g>
	<path class="st1" d="M67.42,45.08c-0.85,0.81-1.34,1.21-2.79,2.34c-0.52-2.38-1.2-4.37-2.33-6.51c2.19-1.45,3.72-2.78,5.43-4.75
		c1.46-1.69,2.31-3.02,3.25-5.12l-4.16-0.01c-1.54,0-2.26,0.04-3.35,0.15l0.02-5.94c0.85,0.12,1.66,0.17,2.99,0.17l0.97,0l0.01-2.83
		c0-1.17-0.08-2.06-0.19-3.07l6.34,0.02c-0.12,0.93-0.21,1.98-0.21,3.11l-0.01,2.79c1.13,0,1.7-0.04,2.06-0.12l2.66,3.44
		c-0.28,0.56-0.32,0.69-0.98,2.22c-0.85,2.14-1.87,4.12-3.21,6.21c0.69,0.85,2.06,2.07,3.19,2.8c-0.04-0.81-0.08-0.93-0.12-1.58
		c1.33,0.12,2.26,0.17,4.24,0.17l14.63,0.04c2.02,0.01,3.27-0.03,4.32-0.15c-0.12,1.41-0.17,2.42-0.17,4.48l-0.03,10.38
		c-0.01,2.02,0.03,3.19,0.19,4.28l-6.18-0.02l0-1.37l-11.11-0.03l0,1.33l-5.98-0.02c0.16-1.17,0.21-2.26,0.21-4.28l0.03-10.34
		c0-0.53,0-0.73,0-1.62c-0.89,1.49-1.38,2.58-1.95,4.6c-0.93-0.93-1.21-1.26-1.85-2.02l-0.02,9.33c-0.01,2.02,0.03,3.27,0.19,4.44
		l-6.3-0.02c0.12-1.37,0.21-2.99,0.21-4.57L67.42,45.08z M76.66,20.41c1.41,0.12,2.87,0.21,4.81,0.21l14.67,0.04
		c2.3,0.01,3.43-0.03,4.65-0.19l-0.01,5.58c-1.21-0.16-2.02-0.21-3.96-0.21l-16.2-0.04c-1.94-0.01-2.75,0.03-3.96,0.19L76.66,20.41z
		 M78.49,29.75c0-1.25-0.04-1.86-0.15-2.83c1.21,0.08,2.26,0.13,4.08,0.13l12.65,0.03c1.66,0,2.63-0.03,3.88-0.11
		c-0.12,0.93-0.17,1.49-0.17,2.79l-0.01,4.77c0,1.29,0.04,1.9,0.15,2.83c-1.13-0.08-2.14-0.13-4-0.13l-12.57-0.03
		c-1.78,0-2.91,0.03-4.04,0.11c0.12-0.93,0.17-1.58,0.17-2.79L78.49,29.75z M82.96,51.34l2.87,0.01l0.01-1.9l-2.87-0.01L82.96,51.34
		z M82.98,45.16l2.87,0.01l0.01-1.9l-2.87-0.01L82.98,45.16z M84.18,33.08l8.57,0.02l0-1.7l-8.57-0.02L84.18,33.08z M91.17,51.36
		l2.87,0.01l0.01-1.9l-2.87-0.01L91.17,51.36z M91.18,45.18l2.87,0.01l0.01-1.9l-2.87-0.01L91.18,45.18z"/>
	<path class="st1" d="M114.33,46.97l-3.43-0.01c-1.25,0-1.7,0-3.11,0.07c0.12-1.29,0.17-2.5,0.17-4.65L108,26.35
		c0-1.49-0.04-2.75-0.19-4.08c1.21,0.12,2.02,0.17,3.72,0.17l5.21,0.01c0.61-1.13,0.94-1.98,1.22-3.11l6.83,0.38
		c-0.33,0.81-0.69,1.53-1.42,2.74l8.2,0.02c1.74,0,2.63-0.03,3.72-0.15c-0.17,1.09-0.21,2.14-0.21,3.64l-0.02,6.42
		c0,1.5,0.03,2.63,0.19,3.72c-1.21-0.08-2.22-0.13-3.68-0.13l-17.62-0.04l0,1.21l23.52,0.06c1.82,0,2.67-0.03,3.76-0.15l-0.01,4.57
		c-1.09-0.12-2.3-0.17-3.88-0.17l-23.39-0.06l0,1.21l23.56,0.06c1.33,0,2.14-0.04,2.91-0.11c-0.08,0.44-0.12,0.93-0.17,1.74
		c-0.17,3.19-0.66,6.95-1.03,8.56c-0.53,2.1-1.5,3.39-3.04,4.07c-0.97,0.44-2.35,0.64-4.2,0.64c-0.24,0-0.49,0-0.89,0
		c-0.27-2.87-0.51-3.96-1.28-5.74c0.93,0.12,1.58,0.21,2.06,0.21c0.97,0,1.42-0.24,1.62-0.97c0.2-0.85,0.41-2.3,0.5-4.04l-13.7-0.04
		l-0.01,3.27l3.51,0.01l0-0.69c0-0.65-0.04-1.09-0.12-1.74l6.18,0.02c-0.12,0.6-0.17,1.57-0.17,2.54l-0.01,2.06
		c0,1.7,0.03,2.22,0.15,3.35c-1.37-0.05-1.37-0.05-3.31-0.09c-0.69-0.04-0.69-0.04-2.1-0.05l-13.58-0.04l0,1.29l-6.1-0.02
		c0.16-1.13,0.21-2.06,0.21-3.51l0.01-3.11c0-1.01-0.04-1.78-0.16-2.47l6.18,0.02c-0.08,0.48-0.13,1.01-0.13,1.7l0,0.69l3.47,0.01
		L114.33,46.97z M114.01,32.47l15.03,0.04l0-1.37l-15.03-0.04L114.01,32.47z M129.05,27.98l0-1.37l-15.03-0.04l0,1.37L129.05,27.98z
		"/>
	<path class="st1" d="M165.92,52.88c-0.01,2.38,0.07,3.8,0.23,5.01l-6.59-0.02c0.17-1.25,0.25-2.71,0.26-5.01l0.02-6.34l-6.63-0.02
		l4.76,2.19c-2.96,3.95-5.8,6.49-9.72,8.82c-1.61-2.19-2.5-3.2-4.23-4.78c2.67-1.17,4.17-2.17,6.27-4.07
		c0.93-0.85,1.34-1.33,1.99-2.18l-1.82-0.01c-2.02-0.01-3.23,0.03-4.44,0.15c0.16-1.21,0.21-2.26,0.21-4.48l0.04-14.38
		c0.01-2.18-0.03-3.19-0.19-4.44l6.34,0.02c-0.13,1.21-0.17,2.22-0.17,4.36l-0.04,13.54l24.29,0.06c2.63,0.01,3.92-0.03,5.01-0.19
		l-0.01,5.7c-1.37-0.16-2.83-0.25-4.97-0.25l-3.19-0.01c2.5,2.76,4.27,3.97,8.67,5.88c-1.66,1.82-2.43,2.82-3.93,5.16
		c-2.58-1.5-3.67-2.27-5.32-3.69c-1.9-1.62-3.14-2.92-4.87-5.1l4.49-2.25l-6.42-0.02L165.92,52.88z M177.92,36.59
		c0,1.41,0.03,2.55,0.11,3.51c-1.01-0.08-2.3-0.13-3.72-0.13l-16.4-0.04c-1.45-0.01-2.75,0.03-3.72,0.11
		c0.08-1.17,0.13-2.14,0.13-3.55l0.03-12.2c0-1.33-0.03-2.47-0.11-3.48c0.97,0.08,2.18,0.13,3.8,0.13l16.36,0.04
		c1.53,0,2.67-0.03,3.68-0.11c-0.08,1.09-0.13,2.1-0.13,3.52L177.92,36.59z M160.26,36.1l11.6,0.03l0-1.41l-11.6-0.03L160.26,36.1z
		 M160.28,31.29l11.6,0.03l0-1.37l-11.6-0.03L160.28,31.29z M160.29,26.52l11.6,0.03l0-1.37l-11.6-0.03L160.29,26.52z"/>
</g>
</svg>
